# xmcd CD database file
#
# Track frame offsets:
#	150
#	5649
#	15480
#	37103
#	45643
#	72388
#	88793
#	101342
#	111418
#	118495
#	130242
#	140698
#
# Disc length: 2184 seconds
#
# Revision: 0
# Processed by: cddbd v1.5.1PL0 Copyright (c) Steve Scherf et al.
# Submitted via: CDex 1.51
#
DISCID=ae08860c
DTITLE=The Blackstone Valley Sinners - The Cold Hard Truth About Christmas
DYEAR=2003
DGENRE=Country
TTITLE0=Hay
TTITLE1=Gift of the Blues
TTITLE2=Katie Dang
TTITLE3=Jingle Bell Rock
TTITLE4=Mary's Boy Child
TTITLE5=Christmas Will Be Just Another Lonely Day
TTITLE6=Song of the Desert
TTITLE7=To Heck with Ole Santa Claus
TTITLE8=Santa Swing
TTITLE9=Christmas Is Just Another Day for Me
TTITLE10=C-H-R-I-S-T-M-A-S
TTITLE11=Feliz Navidad
EXTD=YEAR: 2003
EXTT0=
EXTT1=
EXTT2=
EXTT3=
EXTT4=
EXTT5=
EXTT6=
EXTT7=
EXTT8=
EXTT9=
EXTT10=
EXTT11=
PLAYORDER=
